<svg xmlns="http://www.w3.org/2000/svg" viewBox="0 0 1200 800" width="100%" height="100%">
  <defs>
    <linearGradient id="logBg" x1="0%" y1="0%" x2="100%" y2="100%">
      <stop offset="0%" stop-color="#0a0d14"/>
      <stop offset="100%" stop-color="#111622"/>
    </linearGradient>
  </defs>

  <rect width="1200" height="800" fill="url(#logBg)" />

  <g transform="translate(60, 50)">
    <!-- Browser Window Frame -->
    <rect width="1080" height="700" rx="16" fill="#0d121c" stroke="rgba(255,255,255,0.12)" stroke-width="1.5" />
    <path d="M 0 16 C 0 7.16 7.16 0 16 0 L 1064 0 C 1072.84 0 1080 7.16 1080 16 L 1080 50 L 0 50 Z" fill="#151b27" />
    <circle cx="30" cy="25" r="6" fill="#ef4444" opacity="0.8" />
    <circle cx="50" cy="25" r="6" fill="#f59e0b" opacity="0.8" />
    <circle cx="70" cy="25" r="6" fill="#10b981" opacity="0.8" />
    <rect x="110" y="12" width="600" height="26" rx="6" fill="#090d14" stroke="rgba(255,255,255,0.06)" />
    <text x="130" y="29" font-family="'Plus Jakarta Sans', monospace" font-size="12" fill="#64748b">https://gulfhorizon-cargo.com/gcc-routes</text>

    <!-- CONTENT -->
    <g transform="translate(0, 50)">
      <!-- Nav -->
      <rect width="1080" height="60" fill="rgba(13,18,28,0.9)" />
      <text x="50" y="38" font-family="'Plus Jakarta Sans', sans-serif" font-size="18" font-weight="800" fill="#f8fafc">GULF HORIZON LOGISTICS</text>
      <text x="450" y="36" font-family="'Plus Jakarta Sans', sans-serif" font-size="13" fill="#94a3b8">Marine Freight</text>
      <text x="570" y="36" font-family="'Plus Jakarta Sans', sans-serif" font-size="13" fill="#94a3b8">Cross-Border GCC</text>
      <text x="720" y="36" font-family="'Tajawal', sans-serif" font-size="13" fill="#38bdf8">عربي (RTL)</text>
      <rect x="880" y="14" width="150" height="34" rx="17" fill="#38bdf8" />
      <text x="955" y="36" font-family="'Plus Jakarta Sans', sans-serif" font-size="12" font-weight="700" fill="#090d14" text-anchor="middle">Request Freight RFQ</text>

      <!-- Hero Content -->
      <g transform="translate(50, 40)">
        <rect x="0" y="30" width="240" height="28" rx="14" fill="rgba(56,189,248,0.1)" stroke="rgba(56,189,248,0.3)" />
        <text x="120" y="49" font-family="'Plus Jakarta Sans', sans-serif" font-size="11" font-weight="600" fill="#38bdf8" text-anchor="middle">GCC CUSTOMS &amp; REEFER LOGISTICS</text>

        <text x="0" y="110" font-family="'Plus Jakarta Sans', sans-serif" font-size="42" font-weight="800" fill="#ffffff">Connected Cargo Hubs.</text>
        <text x="0" y="155" font-family="'Plus Jakarta Sans', sans-serif" font-size="42" font-weight="800" fill="#38bdf8">Kuwait • Saudi Arabia • UAE.</text>
        <text x="0" y="195" font-family="'Tajawal', sans-serif" font-size="18" fill="#94a3b8">خدمات الشحن التجاري والتخليص الجمركي وسلاسل الإمداد المبرد بين موانئ الخليج</text>

        <!-- Stats Bar -->
        <g transform="translate(0, 230)">
          <rect width="980" height="80" rx="12" fill="#141a26" stroke="rgba(255,255,255,0.08)" />
          <text x="50" y="35" font-family="'Plus Jakarta Sans', sans-serif" font-size="24" font-weight="800" fill="#38bdf8">14,000+ TEU</text>
          <text x="50" y="58" font-family="'Plus Jakarta Sans', sans-serif" font-size="11" fill="#64748b">ANNUAL CONTAINER MOVES</text>

          <text x="320" y="35" font-family="'Plus Jakarta Sans', sans-serif" font-size="24" font-weight="800" fill="#38bdf8">24/7 BORDER</text>
          <text x="320" y="58" font-family="'Tajawal', sans-serif" font-size="11" fill="#64748b">تخليص جمركي على مدار الساعة</text>

          <text x="600" y="35" font-family="'Plus Jakarta Sans', sans-serif" font-size="24" font-weight="800" fill="#38bdf8">-25°C COLD CHAIN</text>
          <text x="600" y="58" font-family="'Plus Jakarta Sans', sans-serif" font-size="11" fill="#64748b">PHARMACEUTICAL CERTIFIED</text>
        </g>

        <!-- RFQ Interactive Form Preview -->
        <g transform="translate(0, 340)">
          <rect width="980" height="150" rx="12" fill="#111622" stroke="rgba(56,189,248,0.25)" />
          <text x="30" y="35" font-family="'Plus Jakarta Sans', sans-serif" font-size="15" font-weight="700" fill="#f8fafc">Instant Corporate Freight Rate Inquiry (B2B Lead Funnel)</text>
          <rect x="30" y="60" width="280" height="44" rx="8" fill="#182030" stroke="rgba(255,255,255,0.1)" />
          <text x="45" y="87" font-family="'Plus Jakarta Sans', sans-serif" font-size="13" fill="#94a3b8">Origin: Shuwaikh Port, Kuwait</text>

          <rect x="330" y="60" width="280" height="44" rx="8" fill="#182030" stroke="rgba(255,255,255,0.1)" />
          <text x="345" y="87" font-family="'Plus Jakarta Sans', sans-serif" font-size="13" fill="#94a3b8">Destination: Dammam / Riyadh, KSA</text>

          <rect x="630" y="60" width="320" height="44" rx="8" fill="#2563eb" />
          <text x="790" y="87" font-family="'Plus Jakarta Sans', sans-serif" font-size="14" font-weight="700" fill="#ffffff" text-anchor="middle">Calculate Instant Rate →</text>
        </g>
      </g>
    </g>
  </g>
</svg>
